HIERARCHY
ROOT hip
{
	OFFSET 0.000000 0.000000 0.000000 
	CHANNELS 6 Xposition Yposition Zposition Xrotation Zrotation Yrotation
	JOINT abdomen
	{
		OFFSET 0.000000 3.402643 0.000000 
		CHANNELS 3 Xrotation Zrotation Yrotation
		JOINT chest
		{
			OFFSET 0.000000 8.438565 -0.680529 
			CHANNELS 3 Xrotation Zrotation Yrotation
			JOINT neck
			{
				OFFSET 0.000000 10.207942 -0.272212 
				CHANNELS 3 Xrotation Zrotation Yrotation
				JOINT head
				{
					OFFSET 0.000000 3.130431 0.000000 
					CHANNELS 3 Xrotation Zrotation Yrotation
					End Site
					{
						OFFSET 0.000000 3.130435 0.000000 
					}
				}
			}
			JOINT lCollar
			{
				OFFSET 3.470700 6.669187 -0.816635 
				CHANNELS 3 Yrotation Zrotation Xrotation
				JOINT lShldr
				{
					OFFSET 3.198488 0.000000 0.000000 
					CHANNELS 3 Zrotation Yrotation Xrotation
					JOINT lForeArm
					{
						OFFSET 10.139888 0.000000 0.000000 
						CHANNELS 3 Yrotation Zrotation Xrotation
						JOINT lHand
						{
							OFFSET 8.370511 0.000000 0.000000 
							CHANNELS 3 Zrotation Yrotation Xrotation
							End Site
							{
								OFFSET 4.083176 0.000000 0.000000 
							}
						}
					}
				}
			}
			JOINT rCollar
			{
				OFFSET -3.470700 6.669187 -0.816635 
				CHANNELS 3 Yrotation Zrotation Xrotation
				JOINT rShldr
				{
					OFFSET -3.198488 0.000000 0.000000 
					CHANNELS 3 Zrotation Yrotation Xrotation
					JOINT rForeArm
					{
						OFFSET -10.139888 0.000000 0.000000 
						CHANNELS 3 Yrotation Zrotation Xrotation
						JOINT rHand
						{
							OFFSET -8.370511 0.000000 0.000000 
							CHANNELS 3 Zrotation Yrotation Xrotation
							End Site
							{
								OFFSET -4.083176 0.000000 0.000000 
							}
						}
					}
				}
			}
		}
	}
	JOINT lThigh
	{
		OFFSET 5.308129 -1.633274 1.361059 
		CHANNELS 3 Xrotation Zrotation Yrotation
		JOINT lShin
		{
			OFFSET -2.041588 -20.007561 0.000000 
			CHANNELS 3 Xrotation Zrotation Yrotation
			JOINT lFoot
			{
				OFFSET 0.000000 -19.190928 -1.224953 
				CHANNELS 3 Xrotation Yrotation Zrotation
				End Site
				{
					OFFSET 0.000000 -2.449906 4.627600 
				}
			}
		}
	}
	JOINT rThigh
	{
		OFFSET -5.308129 -1.633274 1.361059 
		CHANNELS 3 Xrotation Zrotation Yrotation
		JOINT rShin
		{
			OFFSET 2.041588 -20.007561 0.000000 
			CHANNELS 3 Xrotation Zrotation Yrotation
			JOINT rFoot
			{
				OFFSET 0.000000 -19.190928 -1.224953 
				CHANNELS 3 Xrotation Yrotation Zrotation
				End Site
				{
					OFFSET 0.000000 -2.449906 4.627600 
				}
			}
		}
	}
}
MOTION
Frames: 11
Frame Time: 0.033333
0.014318 53.349392 -0.129707 -6.162109 -2.285156 171.279297 24.942631 -7.863203 -6.021275 -19.716795 10.166015 1.310317 51.063168 8.107644 2.471410 -39.853512 -10.419922 7.156437 2.000000 -2.000000 0.000000 -91.767578 20.341797 -8.535156 -54.084641 -1.526264 -2.068823 3.678396 65.294769 -4.330108 -2.000000 2.000000 0.000000 87.001953 -27.119141 -10.361329 51.956226 1.860006 -2.088787 -27.779652 -65.472549 26.947260 4.168000 6.570446 25.721060 1.525952 -4.855786 -0.298844 -0.960108 -4.873932 -2.399069 -1.083380 -2.053576 -24.999357 6.081042 5.224098 0.189812 -0.318923 -11.200811 -0.562925 
0.036229 53.357273 -0.253769 -6.347656 -2.285156 171.269135 24.942631 -7.863203 -6.021275 -19.716795 10.166015 1.310317 51.063168 8.107644 2.471410 -39.658203 -10.429687 7.117373 2.000000 -2.000000 0.000000 -91.748047 20.556641 -8.365711 -53.907223 -1.376048 -2.009136 2.671596 64.950287 -5.528503 -2.000000 2.000000 0.000000 87.197266 -27.294924 -10.482995 51.966805 1.989017 -2.120399 -28.246469 -65.134270 27.395992 4.353950 6.425242 25.714836 0.988768 -4.834626 -0.294939 -0.696055 -4.877889 -2.408197 -1.083378 -2.053578 -24.999357 6.256487 5.204091 -0.000909 -0.303255 -11.565366 -0.954417 
0.073069 53.333645 -0.356317 -6.513672 -2.285156 171.279297 24.921228 -7.951994 -5.866969 -19.541016 9.980468 1.308594 51.063168 8.107644 2.471410 -39.326172 -10.615234 6.855469 2.000000 -2.000000 0.000000 -91.982422 20.722654 -8.671875 -53.913395 -1.485638 -1.875367 2.880116 64.618713 -5.179687 -2.000000 2.000000 0.000000 87.363281 -27.128906 -10.404843 51.954685 1.680543 -2.030774 -28.072201 -65.187691 27.320766 4.529664 6.444432 25.727150 0.628420 -4.835510 -0.226945 -0.314304 -4.964017 -2.045685 -1.083378 -2.053579 -24.999357 6.256487 5.204090 -0.000909 -0.303630 -11.547102 -0.947314 
0.120367 53.333645 -0.430690 -6.689453 -2.470703 171.298340 25.105082 -8.109556 -5.948279 -19.716795 10.166015 1.310317 51.063168 8.107644 2.471410 -39.160160 -10.810547 6.777344 2.000000 -2.000000 0.000000 -92.021484 21.123049 -8.886719 -53.913395 -1.485638 -1.875367 3.562826 64.610786 -4.290380 -2.000000 2.000000 0.000000 86.757813 -26.904299 -9.711450 51.955750 1.829622 -2.070996 -27.496326 -65.307350 26.391590 4.353950 6.425242 25.714836 0.813878 -4.856816 -0.222066 -0.312412 -4.887171 -1.806439 -1.268958 -2.056495 -25.035957 6.254125 5.190536 0.037606 -0.308079 -11.482820 -0.702332 
0.181090 53.325760 -0.496833 -6.689453 -2.470703 171.474121 25.105082 -8.109556 -5.948279 -19.716795 10.166015 1.310317 51.063168 8.107644 2.471410 -38.974613 -10.986328 6.708984 2.000000 -2.000000 0.000000 -92.255859 21.308594 -9.215200 -53.919464 -1.665025 -2.099843 3.781980 64.757988 -4.176387 -2.000000 2.000000 0.000000 86.562500 -26.914063 -9.433595 51.954685 1.680543 -2.030774 -28.144218 -65.072395 26.332338 4.353950 6.425242 25.714836 0.988769 -4.834623 -0.294939 -0.271330 -4.595252 -1.504832 -1.258535 -2.032543 -25.210388 6.430407 5.191317 0.062044 -0.493093 -11.570739 -0.609021 
0.238055 53.349392 -0.552460 -6.875000 -2.626953 171.523438 25.280861 -8.109556 -5.948279 -19.707031 10.341797 1.162110 51.063168 8.107644 2.471410 -38.974613 -10.986328 6.708984 2.000000 -2.000000 0.000000 -92.246094 21.552734 -9.238281 -54.089191 -1.475889 -1.875937 3.551316 64.786545 -4.280381 -2.000000 2.000000 0.000000 86.328125 -26.748049 -9.437989 51.956203 1.869755 -2.088220 -28.327188 -65.019257 26.436651 4.168139 6.385217 25.710100 0.988770 -4.834623 -0.294939 -0.085135 -4.930331 -1.707585 -1.258536 -2.032544 -25.210388 6.430407 5.191317 0.062044 -0.506305 -11.650490 -0.839617 
0.298993 53.349392 -0.605202 -7.060547 -2.626953 171.533203 25.289825 -8.273930 -6.011332 -19.873047 10.527345 1.163894 51.063168 8.107644 2.471410 -39.169922 -11.142577 6.542968 2.000000 -2.000000 0.000000 -92.539063 21.904297 -9.755859 -54.095528 -1.655844 -2.110157 3.957129 64.953918 -3.865923 -2.000000 2.000000 0.000000 85.937500 -26.689455 -9.232902 52.131813 1.820441 -2.081309 -26.852156 -65.376381 24.827736 4.168137 6.385218 25.710100 0.988770 -4.834623 -0.294939 -0.096710 -4.847308 -1.843511 -1.435467 -2.039754 -25.207823 6.430406 5.191319 0.062044 -0.482804 -11.620588 -0.836830 
0.361233 53.365154 -0.643757 -7.060547 -2.626953 171.533203 25.465607 -8.273931 -6.011333 -19.873047 10.527345 1.163894 51.063168 8.107644 2.471410 -39.716797 -11.123047 6.650391 2.000000 -2.000000 0.000000 -92.578125 22.070313 -9.667968 -53.907223 -1.376048 -2.009136 2.681455 64.833122 -5.167408 -2.000000 2.000000 0.000000 85.849609 -26.875002 -9.027851 52.307594 1.820441 -2.081309 -25.601744 -65.722267 24.163054 4.168139 6.385220 25.710100 0.813881 -4.856815 -0.222066 -0.076608 -4.941809 -1.429408 -1.435467 -2.039755 -25.207823 6.430406 5.191320 0.062044 -0.482803 -11.620588 -0.836830 
0.422843 53.365154 -0.661564 -7.216797 -2.812500 171.542496 25.640526 -8.261390 -6.017050 -19.863281 10.703126 1.193220 51.063168 8.107644 2.471410 -40.058594 -10.927733 6.728515 2.000000 -2.000000 0.000000 -92.705078 22.187500 -10.224607 -53.919960 -1.685659 -2.118197 3.131307 64.951363 -4.928967 -2.000000 2.000000 0.000000 86.025391 -26.728516 -9.115721 52.306530 1.671363 -2.041086 -23.770338 -65.975945 22.975912 4.031126 6.522141 25.705500 0.647618 -4.901793 -0.217931 -0.209808 -4.908242 -1.485973 -1.640059 -2.047477 -25.196270 6.459967 5.201445 0.064876 -0.501100 -11.487564 -0.745468 
0.485465 53.357273 -0.688853 -7.412109 -2.802734 171.542496 25.835356 -8.431478 -6.092702 -19.863281 10.703126 1.193220 51.063168 8.107644 2.471410 -40.419922 -10.917968 6.630859 2.000000 -2.000000 0.000000 -92.832031 22.011717 -10.074464 -54.089191 -1.475889 -1.875937 3.049839 65.292961 -5.103596 -2.000000 2.000000 0.000000 86.083984 -26.347656 -9.658201 52.307594 1.820441 -2.081309 -21.896446 -66.515709 20.913855 4.031127 6.522140 25.705500 0.452722 -4.924009 -0.211608 -0.189069 -4.910284 -1.454519 -1.610331 -2.025697 -25.370182 6.432626 5.204708 0.043041 -1.020333 -11.823139 -1.255970 
0.557837 53.325760 -0.707381 -7.578125 -2.812500 171.552734 25.989571 -8.516841 -5.948981 -19.863281 10.703126 1.369002 51.063168 8.107644 2.471410 -40.585941 -10.732421 6.347656 2.000000 -2.000000 0.000000 -92.646484 22.021484 -10.142821 -54.265236 -1.476459 -1.885682 3.149397 65.449471 -5.202169 -2.000000 2.000000 0.000000 85.878906 -25.449219 -9.931640 52.130764 1.661614 -2.041653 -20.373537 -66.783195 19.371611 4.031128 6.522141 25.705500 0.452720 -4.924006 -0.211608 -0.186598 -4.595343 -1.292582 -1.785019 -2.002815 -25.561432 6.430407 5.191319 0.062044 -1.178928 -11.951059 -1.365121 
